<svg xmlns="http://www.w3.org/2000/svg" width="64" height="64" fill="none"><rect width="64" height="64" fill="#FF6464" rx="16"/><path fill="#fff" fill-rule="evenodd" d="M16.577 28.446c2.152-.77 4.416-1.795 6.163-3.278 2.074-1.762 2.917-4.031 3.484-6.42.727-3.068 1.017-6.337 1.9-9.41.326-1.141.954-1.573 1.224-1.764a2.992 2.992 0 0 1 2.018-.564c.768.055 1.823.348 2.517 1.642.099.185.227.467.314.854.063.283.104 1.17.17 1.535.168.9.307 1.8.438 2.706.437 3.012.688 5.57 2.067 8.338 1.871 3.758 3.746 6.056 6.29 7.075 2.458.984 5.398.8 9.154.027.357-.087.71-.162 1.06-.222a3.092 3.092 0 0 1 3.565 2.46 3.109 3.109 0 0 1-2.368 3.637c-.343.075-.68.148-1.014.213-5.076 1.264-10.952 5.772-14.367 9.72-1.052 1.216-2.593 4.62-4.165 6.79-1.16 1.601-2.464 2.657-3.558 3.03a3.196 3.196 0 0 1-1.863.086 3.153 3.153 0 0 1-1.83-1.231 3.497 3.497 0 0 1-.61-1.425c-.055-.29-.06-1.026-.06-1.359-.32-1.108-.712-2.19-.998-3.307-.68-2.667-2.018-4.355-3.606-6.586-1.485-2.087-3.08-3.399-5.42-4.446-.304-.074-2.759-.678-3.626-1.025-1.266-.509-1.87-1.36-2.088-1.82a3.504 3.504 0 0 1-.337-2.025 3.317 3.317 0 0 1 1.147-2.13c.41-.36 1.024-.71 1.845-.88.634-.133 2.317-.21 2.554-.22ZM30.979 24.1c.114.255.235.51.364.77 2.74 5.502 5.805 8.574 9.53 10.065l.125.048c-2.492 1.86-4.748 3.939-6.472 5.932-.71.82-1.65 2.525-2.665 4.273-.923-3.015-2.432-5.146-4.329-7.813-1.45-2.035-2.968-3.567-4.834-4.815 1.448-.747 2.83-1.622 4.033-2.644 2.003-1.702 3.328-3.674 4.248-5.816Z" clip-rule="evenodd"/></svg>