<svg xmlns="http://www.w3.org/2000/svg" width="52" height="52" fill="none"><mask id="a" width="52" height="52" x="0" y="0" maskUnits="userSpaceOnUse" style="mask-type:alpha"><path fill="#D9D9D9" d="M0 0h52v52H0z"/></mask><g mask="url(#a)"><path fill="#081646" d="M17.58 42a3.13 3.13 0 0 1-2.295-.955 3.13 3.13 0 0 1-.954-2.296v-3.458q0-.833.562-1.395.564-.563 1.396-.563h4.291v-5.959a10.8 10.8 0 0 1-3.493-.343 7.35 7.35 0 0 1-3.102-1.644 2.3 2.3 0 0 1-.485-.664 1.8 1.8 0 0 1-.178-.782v-1.858h-1.967a1.95 1.95 0 0 1-1.402-.585L5.426 16.97q-.605-.604-.573-1.408.031-.804.66-1.37 1.572-1.342 3.913-1.98t4.438-.637q1.773 0 3.446.404a12.2 12.2 0 0 1 3.27 1.333v-.396q0-1.29.897-2.186.897-.897 2.186-.897h16.844q1.61 0 2.759 1.15 1.148 1.152 1.148 2.767v22.833q0 2.271-1.573 3.843Q41.267 42 38.997 42H17.581Zm6.25-8.667h11.084q.795 0 1.356.56.56.56.56 1.357v1.333q0 .92.623 1.543t1.544.623c.921 0 1.129-.207 1.544-.623q.623-.623.623-1.543V13.75a.65.65 0 0 0-.188-.48.65.65 0 0 0-.48-.187H24.498a.65.65 0 0 0-.48.187.65.65 0 0 0-.187.48v1.716L35.84 27.475q.372.365.455.83.082.465-.122.917a1.76 1.76 0 0 1-.572.719q-.367.267-.939.267-.327 0-.631-.141a1.8 1.8 0 0 1-.508-.342l-5.9-5.9-.83.829q-.695.695-1.42 1.208-.725.512-1.542.837zm-11.908-14.5h2.692q.832 0 1.395.563t.563 1.395v2.492q.88.559 1.708.762a7 7 0 0 0 1.659.204q1.362 0 2.468-.441t2.123-1.458l.809-.809-3.409-3.408q-1.654-1.655-3.708-2.481a11.6 11.6 0 0 0-4.358-.827q-1.335 0-2.569.287a12.3 12.3 0 0 0-2.315.78zm21.658 17.75h-16v2.166h16.492a3.4 3.4 0 0 1-.379-1.015 5.7 5.7 0 0 1-.113-1.151"/></g></svg>