<svg xmlns="http://www.w3.org/2000/svg" width="52" height="52" fill="none"><mask id="a" width="52" height="52" x="0" y="0" maskUnits="userSpaceOnUse" style="mask-type:alpha"><path fill="#D9D9D9" d="M0 0h52v52H0z"/></mask><g mask="url(#a)"><path fill="#081646" d="M12.458 35.209v-13q0-.69.468-1.158a1.57 1.57 0 0 1 1.158-.467q.69 0 1.158.467.466.468.466 1.158v13q0 .69-.467 1.158a1.57 1.57 0 0 1-1.158.467 1.57 1.57 0 0 1-1.158-.467 1.57 1.57 0 0 1-.467-1.158m11.917 0v-13q0-.69.467-1.158a1.57 1.57 0 0 1 1.159-.467q.69 0 1.157.467.467.468.467 1.158v13q0 .69-.468 1.158a1.57 1.57 0 0 1-1.158.467 1.57 1.57 0 0 1-1.157-.467 1.57 1.57 0 0 1-.467-1.158m-16.75 9.208a1.57 1.57 0 0 1-1.158-.467A1.57 1.57 0 0 1 6 42.792q0-.691.467-1.158a1.57 1.57 0 0 1 1.158-.467h36.75q.69 0 1.157.468.468.467.468 1.158t-.468 1.157a1.57 1.57 0 0 1-1.157.467zm28.667-9.208v-13q0-.69.467-1.158a1.57 1.57 0 0 1 1.158-.467q.69 0 1.158.467.467.468.467 1.158v13q0 .69-.468 1.158a1.57 1.57 0 0 1-1.158.467q-.69 0-1.158-.467a1.58 1.58 0 0 1-.466-1.158m8.166-18.958H7.388a1.34 1.34 0 0 1-.983-.405 1.33 1.33 0 0 1-.405-.98v-.846q0-.424.212-.73t.559-.498l17.508-8.566a3.9 3.9 0 0 1 1.718-.392q.908 0 1.724.392l17.42 8.512A1.54 1.54 0 0 1 46 14.127v.587q0 .665-.436 1.101-.435.435-1.106.436M13.683 13h24.634L26.292 7.167A.7.7 0 0 0 26 7.105a.7.7 0 0 0-.292.062l-12.025 5.834Z"/></g></svg>