<svg xmlns="http://www.w3.org/2000/svg" width="52" height="52" fill="none"><mask id="a" width="52" height="52" x="0" y="0" maskUnits="userSpaceOnUse" style="mask-type:alpha"><path fill="#D9D9D9" d="M0 0h52v52H0z"/></mask><g mask="url(#a)"><path fill="#081646" d="M32.232 24.97q-1.173 0-1.985-.81-.814-.807-.814-1.98 0-1.17.808-1.985.81-.814 1.981-.814t1.985.81q.814.808.814 1.98t-.81 1.985q-.808.814-1.98.814Zm-12.452 0q-1.17 0-1.985-.81-.814-.807-.814-1.98 0-1.17.81-1.985.809-.814 1.98-.814 1.172 0 1.985.81.814.808.814 1.98t-.81 1.985q-.808.814-1.98.814m6.221 12.794q-3.456 0-6.289-1.821a12.1 12.1 0 0 1-4.348-4.846h21.274a12.1 12.1 0 0 1-4.348 4.846q-2.833 1.82-6.289 1.82Zm.001 9.902q-4.51 0-8.451-1.706t-6.873-4.637q-2.932-2.932-4.638-6.871T4.334 26c0-4.512.57-5.825 1.706-8.452q1.706-3.942 4.638-6.873t6.87-4.638Q21.49 4.333 26 4.333q4.511 0 8.452 1.705 3.94 1.707 6.873 4.638 2.931 2.931 4.637 6.87 1.706 3.941 1.706 8.452t-1.706 8.452c-1.706 3.941-2.683 4.918-4.637 6.873q-2.932 2.931-6.871 4.637t-8.452 1.706m0-3.824q7.39 0 12.617-5.225 5.225-5.226 5.225-12.618c0-7.392-1.742-9.134-5.225-12.617Q33.393 8.155 26 8.155q-.537 0-1.075.024a5.2 5.2 0 0 0-1.042.153q-.284.43-.363.828a4.7 4.7 0 0 0-.078.907q0 1.485 1.046 2.532t2.54 1.046q.638 0 1.08-.191.441-.192.951-.191.597 0 .994.457.399.457.398 1.066 0 1.168-1.174 1.533a7.6 7.6 0 0 1-2.257.366q-2.72 0-4.67-1.949-1.948-1.95-1.948-4.67v-.45q0-.212.088-.564-5.411 1.765-8.872 6.35Q8.158 19.991 8.158 26q0 7.392 5.226 12.618Q18.608 43.842 26 43.842Z"/></g></svg>