<svg xmlns="http://www.w3.org/2000/svg" width="52" height="52" fill="none"><mask id="a" width="52" height="52" x="0" y="0" maskUnits="userSpaceOnUse" style="mask-type:alpha"><path fill="#D9D9D9" d="M0 0h52v52H0z"/></mask><g mask="url(#a)"><path fill="#081646" d="M35.417 43.333q-3.275 0-5.606-2.329t-2.331-5.6 2.329-5.598 5.6-2.327 5.598 2.326 2.327 5.59a7.6 7.6 0 0 1-1.33 4.338l5.208 5.196q.243.204.363.508t.121.613q0 .308-.12.6a1.7 1.7 0 0 1-.364.542 1.62 1.62 0 0 1-1.743.327 2.2 2.2 0 0 1-.54-.327l-5.208-5.154a7.3 7.3 0 0 1-2.023.966 7.8 7.8 0 0 1-2.281.33Zm-23.167.021q-3.265 0-5.591-2.327t-2.325-5.631q0-3.266 2.325-5.591t5.591-2.326q3.304 0 5.632 2.326t2.327 5.59q0 3.305-2.327 5.632t-5.632 2.327m0-3.25q1.976 0 3.342-1.367t1.367-3.341q0-1.925-1.367-3.296t-3.342-1.37q-1.925 0-3.296 1.37t-1.37 3.296q0 1.974 1.37 3.341t3.296 1.367m23.167 0q1.925 0 3.295-1.367 1.371-1.366 1.371-3.341 0-1.925-1.37-3.296t-3.296-1.37q-1.976 0-3.342 1.37t-1.367 3.296q0 1.974 1.367 3.341c1.367 1.367 2.025 1.367 3.342 1.367M12.25 20.229q-3.265 0-5.591-2.327t-2.325-5.631q0-3.265 2.325-5.591t5.591-2.326q3.304 0 5.632 2.326t2.327 5.59q0 3.305-2.327 5.632t-5.632 2.327m23.167 0q-3.304 0-5.632-2.327t-2.327-5.631q0-3.265 2.327-5.591t5.632-2.326q3.265 0 5.591 2.326t2.325 5.59q0 3.305-2.325 5.632t-5.591 2.327M12.25 16.98q1.976 0 3.342-1.366t1.367-3.342q0-1.925-1.367-3.296T12.25 7.605q-1.925 0-3.296 1.37-1.37 1.372-1.37 3.297 0 1.975 1.37 3.341t3.296 1.367m23.167 0q1.925 0 3.295-1.366 1.371-1.367 1.371-3.342 0-1.925-1.37-3.296t-3.296-1.371q-1.976 0-3.342 1.37-1.367 1.372-1.367 3.297 0 1.975 1.367 3.341t3.342 1.367"/></g></svg>