<svg xmlns="http://www.w3.org/2000/svg" width="52" height="52" fill="none"><mask id="a" width="52" height="52" x="0" y="0" maskUnits="userSpaceOnUse" style="mask-type:alpha"><path fill="#D9D9D9" d="M0 0h52v52H0z"/></mask><g mask="url(#a)"><path fill="#081646" d="M7.829 12.883q-.75-.98-.213-2.067t1.759-1.087h22.77q.925 0 1.752.397a3.6 3.6 0 0 1 1.36 1.127l9.351 12.109q.604.812.161 1.702t-1.45.89q-.402 0-.732-.165a1.7 1.7 0 0 1-.57-.473l-9.309-12.088a.7.7 0 0 0-.229-.187.65.65 0 0 0-.292-.063h-20.27l8.195 10.63q.825 1.043.825 2.386c0 1.343-.275 1.694-.825 2.397l-8.196 10.608H23.45q.619 0 1.072.4t.52 1.025q.099.724-.402 1.275t-1.224.55H9.375q-1.22 0-1.759-1.088-.537-1.087.213-2.066l9.713-12.68a.66.66 0 0 0 0-.832zM37.533 39.77l-1.183-1.204q-.384-.405-.898-.388-.515.017-.919.421-.404.405-.404.908 0 .505.404.909l1.63 1.629q.586.588 1.37.588.783 0 1.37-.588l4.563-4.488q.405-.385.404-.898 0-.515-.404-.918a1.17 1.17 0 0 0-.898-.367 1.44 1.44 0 0 0-.918.367zM39 49.062q-4.142 0-7.04-2.898t-2.898-7.04q0-4.14 2.898-7.04 2.898-2.897 7.04-2.897 4.14 0 7.04 2.898 2.897 2.898 2.897 7.04 0 4.14-2.898 7.039t-7.04 2.898Z"/></g></svg>