<svg xmlns="http://www.w3.org/2000/svg" width="52" height="52" fill="none"><mask id="a" width="52" height="52" x="0" y="0" maskUnits="userSpaceOnUse" style="mask-type:alpha"><path fill="#D9D9D9" d="M0 0h52v52H0z"/></mask><g mask="url(#a)"><path fill="#081646" d="M15.167 42.792q-2.375 0-4.064-1.605-1.69-1.608-1.827-4.003a7.33 7.33 0 0 1-3.01-2.817 7.7 7.7 0 0 1-1.098-4.033q0-2.703 1.62-4.764c1.62-2.061 2.493-2.294 4.238-2.76l-4.233-4.234-.984.983a1.65 1.65 0 0 1-1.162.492 1.5 1.5 0 0 1-1.163-.45 1.5 1.5 0 0 1-.45-1.162q.021-.692.492-1.163l4.25-4.25a1.65 1.65 0 0 1 1.162-.492q.692-.021 1.163.45.47.471.45 1.163-.021.69-.492 1.162l-.983.984 3.742 3.741 1.9-5.591a5.57 5.57 0 0 1 2.012-2.786 5.3 5.3 0 0 1 3.246-1.072h11.966q1.8 0 3.246 1.072a5.57 5.57 0 0 1 2.013 2.786l2.758 8.191q2.962.368 4.919 2.552 1.956 2.186 1.956 5.148a7.7 7.7 0 0 1-1.098 4.033 7.33 7.33 0 0 1-3.01 2.817q-.138 2.395-1.827 4.003-1.69 1.605-4.065 1.605-2.079 0-3.669-1.306a5.74 5.74 0 0 1-2.023-3.319H20.86a5.74 5.74 0 0 1-2.023 3.319q-1.59 1.306-3.669 1.306Zm.284-20.29h8.883v-8.667h-4.358q-.745 0-1.33.447a2.57 2.57 0 0 0-.854 1.194L15.451 22.5Zm12.133 0h8.883l-2.341-7.026a2.57 2.57 0 0 0-.854-1.194 2.13 2.13 0 0 0-1.33-.447h-4.358V22.5Zm-6.808 12.416h10.45a5.9 5.9 0 0 1 2.158-2.924 5.72 5.72 0 0 1 3.45-1.118q1.584 0 2.93.768a6.3 6.3 0 0 1 2.195 2.09 4.4 4.4 0 0 0 1.192-1.514 4.3 4.3 0 0 0 .433-1.886q0-1.89-1.346-3.237-1.346-1.346-3.237-1.346H13q-1.891 0-3.238 1.346t-1.346 3.237q0 .988.433 1.886a4.4 4.4 0 0 0 1.193 1.514 5.94 5.94 0 0 1 2.185-2.1 5.9 5.9 0 0 1 2.94-.758 5.73 5.73 0 0 1 3.45 1.118 5.9 5.9 0 0 1 2.158 2.924Zm-5.609 4.624a2.6 2.6 0 0 0 1.919-.79 2.6 2.6 0 0 0 .79-1.918 2.6 2.6 0 0 0-.79-1.918 2.6 2.6 0 0 0-1.919-.79q-1.129 0-1.918.79a2.6 2.6 0 0 0-.79 1.918q0 1.13.79 1.919a2.6 2.6 0 0 0 1.918.79Zm21.667 0a2.6 2.6 0 0 0 1.919-.79 2.6 2.6 0 0 0 .79-1.918 2.6 2.6 0 0 0-.79-1.918 2.6 2.6 0 0 0-1.919-.79 2.6 2.6 0 0 0-1.919.79 2.6 2.6 0 0 0-.79 1.918q0 1.13.79 1.919a2.6 2.6 0 0 0 1.92.79Z"/></g></svg>