<svg xmlns="http://www.w3.org/2000/svg" width="52" height="52" fill="none"><mask id="a" width="52" height="52" x="0" y="0" maskUnits="userSpaceOnUse" style="mask-type:alpha"><path fill="#D9D9D9" d="M0 0h52v52H0z"/></mask><g mask="url(#a)"><path fill="#081646" d="M6.615 42Q5.1 42 4.05 40.989A3.3 3.3 0 0 1 3 38.519V13.481q0-1.46 1.05-2.47Q5.1 9.999 6.616 10h38.769q1.515 0 2.565 1.011t1.05 2.47v25.037q0 1.46-1.05 2.47Q46.9 42 45.384 42zm26.07-2.889h12.7a.6.6 0 0 0 .422-.185.56.56 0 0 0 .193-.408V13.482a.56.56 0 0 0-.193-.408.6.6 0 0 0-.422-.185H6.614a.6.6 0 0 0-.423.185.56.56 0 0 0-.192.408v25.036a.56.56 0 0 0 .192.408.6.6 0 0 0 .423.185h.7q2.1-3.111 5.455-4.926 3.352-1.815 7.23-1.815t7.23 1.815q3.355 1.815 5.454 4.926ZM20 30.074q2.289 0 3.894-1.546 1.605-1.545 1.606-3.75 0-2.205-1.606-3.75-1.605-1.546-3.894-1.546t-3.894 1.546q-1.605 1.545-1.606 3.75 0 2.205 1.606 3.75 1.605 1.546 3.894 1.546m-8.9 9.037h17.8a12.15 12.15 0 0 0-4.034-2.84A12 12 0 0 0 20 35.258q-2.55 0-4.85 1.011a12.5 12.5 0 0 0-4.05 2.841ZM20 27.185q-1.042 0-1.771-.702a2.28 2.28 0 0 1-.729-1.705q0-1.005.729-1.706.729-.7 1.771-.701 1.042 0 1.771.701a2.28 2.28 0 0 1 .729 1.706 2.28 2.28 0 0 1-.729 1.705q-.729.702-1.771.702m16.807-4.978v2.349q0 .496.339.822.338.326.854.326c.516 0 .628-.109.854-.326q.339-.325.339-.822v-2.349l2.111 1.174q.435.234.91.117.474-.117.717-.535.242-.42.121-.876a1.07 1.07 0 0 0-.556-.69l-2.111-1.175 2.111-1.174a1.07 1.07 0 0 0 .556-.69q.12-.458-.121-.876a1.1 1.1 0 0 0-.717-.536 1.24 1.24 0 0 0-.91.117l-2.111 1.174V15.89q0-.496-.339-.822A1.18 1.18 0 0 0 38 14.74q-.516 0-.854.326a1.1 1.1 0 0 0-.339.822v2.348l-2.111-1.174a1.24 1.24 0 0 0-.91-.117 1.1 1.1 0 0 0-.717.536q-.242.418-.121.876.121.457.556.69l2.111 1.174-2.111 1.175a1.07 1.07 0 0 0-.556.69q-.12.458.121.876.242.418.717.535t.91-.117z"/></g></svg>