<svg xmlns="http://www.w3.org/2000/svg" width="52" height="52" fill="none"><mask id="a" width="52" height="52" x="0" y="0" maskUnits="userSpaceOnUse" style="mask-type:alpha"><path fill="#D9D9D9" d="M0 0h52v52H0z"/></mask><g mask="url(#a)"><path fill="#081646" d="M16.784 48.187a5.88 5.88 0 0 1-4.205-1.746l-8.887-8.904q-.534-.533-.55-1.333a1.93 1.93 0 0 1 .516-1.388l.2-.2a3.03 3.03 0 0 1 1.509-.83 3.7 3.7 0 0 1 1.77.03l4.071 1.042V17.333q0-.69.468-1.157a1.57 1.57 0 0 1 1.158-.468q.69 0 1.158.468.465.466.466 1.157v19.271q0 .958-.756 1.54-.757.58-1.714.331l-3.692-.955 6.579 6.621q.408.409.881.603.473.193 1.031.193h8.297q2.01 0 3.442-1.432t1.433-3.443v-7.77q0-.691.467-1.158a1.57 1.57 0 0 1 1.158-.468q.69 0 1.158.468.466.467.466 1.157v7.771q0 3.367-2.38 5.746-2.378 2.379-5.744 2.379zm.674-16.166v-7.063q0-.69.468-1.158a1.57 1.57 0 0 1 1.158-.467q.691 0 1.157.467.468.468.467 1.158v7.063q0 .69-.467 1.157a1.58 1.58 0 0 1-1.159.468q-.69 0-1.157-.468a1.58 1.58 0 0 1-.467-1.157m6.25 0v-4.48q0-.69.468-1.157a1.57 1.57 0 0 1 1.158-.468q.69 0 1.158.468.466.467.466 1.157v4.48q0 .69-.467 1.157a1.57 1.57 0 0 1-1.158.468 1.57 1.57 0 0 1-1.158-.468 1.57 1.57 0 0 1-.467-1.157m11.11-9.355q-4.043 0-7.514-1.916c-3.471-1.916-4.192-3.052-5.635-5.323a2.5 2.5 0 0 1-.303-.657 2.7 2.7 0 0 1-.091-.729q0-.4.091-.728.093-.326.306-.657 2.129-3.405 5.61-5.323 3.483-1.917 7.525-1.917 4.043 0 7.514 1.917t5.634 5.323q.211.331.303.657.092.327.092.728t-.092.729a2.4 2.4 0 0 1-.304.657q-2.13 3.406-5.611 5.323-3.483 1.917-7.525 1.916m-.008-3.25q3.048 0 5.753-1.428a12.64 12.64 0 0 0 4.479-3.947 12.65 12.65 0 0 0-4.477-3.946 12.1 12.1 0 0 0-5.75-1.429q-3.048 0-5.752 1.43a12.64 12.64 0 0 0-4.48 3.945 12.65 12.65 0 0 0 4.476 3.947 12.1 12.1 0 0 0 5.75 1.428Zm.005-2.666a2.62 2.62 0 0 1-1.92-.79 2.6 2.6 0 0 1-.791-1.916q0-1.128.79-1.919a2.6 2.6 0 0 1 1.916-.792q1.127 0 1.92.79.79.79.79 1.916 0 1.128-.789 1.919a2.6 2.6 0 0 1-1.916.792"/></g></svg>