<svg xmlns="http://www.w3.org/2000/svg" width="52" height="52" fill="none"><mask id="a" width="52" height="52" x="0" y="0" maskUnits="userSpaceOnUse" style="mask-type:alpha"><path fill="#D9D9D9" d="M0 0h52v52H0z"/></mask><g mask="url(#a)"><path fill="#081646" d="M16.183 40.312 19.05 43.2q.45.444.45 1.112 0 .667-.483 1.15-.45.472-1.142.46-.692-.01-1.142-.46l-5.404-5.404q-.587-.588-.587-1.37 0-.784.587-1.372l5.404-5.383q.45-.45 1.115-.46a1.63 1.63 0 0 1 1.169.455q.504.51.503 1.163 0 .655-.503 1.159l-2.834 2.812h19.613l-2.846-2.846a1.55 1.55 0 0 1-.46-1.114q-.01-.664.498-1.174.466-.465 1.137-.466.67 0 1.142.471l5.383 5.383q.588.589.587 1.371 0 .785-.587 1.371l-5.404 5.404q-.45.45-1.115.46a1.63 1.63 0 0 1-1.169-.455q-.504-.51-.504-1.163 0-.654.505-1.158l2.833-2.834zm-2.642-14.854a1.57 1.57 0 0 1-1.158-.467 1.57 1.57 0 0 1-.466-1.158V7.042q0-.69.467-1.158a1.57 1.57 0 0 1 1.158-.468q.69 0 1.158.468.466.467.467 1.157v16.792q0 .69-.468 1.158a1.57 1.57 0 0 1-1.158.467m12.458 0a1.57 1.57 0 0 1-1.157-.467 1.57 1.57 0 0 1-.467-1.158V7.042q0-.69.467-1.158a1.57 1.57 0 0 1 1.159-.468q.69 0 1.157.468.467.467.467 1.157v16.792q0 .69-.468 1.158a1.57 1.57 0 0 1-1.158.467m12.459 0a1.57 1.57 0 0 1-1.158-.467 1.57 1.57 0 0 1-.467-1.158V7.042q0-.69.468-1.158a1.57 1.57 0 0 1 1.158-.468q.69 0 1.157.468.468.467.467 1.157v16.792q0 .69-.467 1.158a1.57 1.57 0 0 1-1.158.467"/></g></svg>