<svg xmlns="http://www.w3.org/2000/svg" width="52" height="52" fill="none"><mask id="a" width="52" height="52" x="0" y="0" maskUnits="userSpaceOnUse" style="mask-type:alpha"><path fill="#D9D9D9" d="M0 0h52v52H0z"/></mask><g mask="url(#a)"><path fill="#081646" d="M0 36v-.951q0-3.32 3.342-4.371t5.728-1.052 5.728 1.052 3.342 4.371V36zm9.07-10.198q-1.763 0-2.998-1.302t-1.235-3.16q0-1.857 1.235-3.16 1.235-1.302 2.998-1.302 1.762 0 2.998 1.302 1.234 1.302 1.234 3.16t-1.234 3.16q-1.236 1.302-2.998 1.302m11.749 3.83q-.577 0-1.01-.457a1.5 1.5 0 0 1-.432-1.064q0-.333.428-1.069.46-.661.618-1.475a8.6 8.6 0 0 0 .159-1.648q0-.834-.17-1.633a3.8 3.8 0 0 0-.63-1.436 2.6 2.6 0 0 1-.31-.53 1.5 1.5 0 0 1-.118-.58q0-.655.409-1.086.41-.432 1.044-.432.39 0 .708.238t.55.57q.67 1.05 1.035 2.308.365 1.26.365 2.576a9.4 9.4 0 0 1-.353 2.577 9.3 9.3 0 0 1-1.023 2.33 3 3 0 0 1-.547.567 1.14 1.14 0 0 1-.723.243Zm4.93 5.211q-.62 0-1.05-.432-.429-.432-.429-1.092 0-.305.119-.58.118-.275.309-.524a12.5 12.5 0 0 0 2.174-3.952q.71-2.142.71-4.373t-.71-4.354a12.2 12.2 0 0 0-2.174-3.908 3 3 0 0 1-.31-.507 1.3 1.3 0 0 1-.118-.559q0-.66.408-1.11A1.33 1.33 0 0 1 25.712 13q.346 0 .642.155.297.154.53.424a15.4 15.4 0 0 1 2.7 4.892q.881 2.658.881 5.416t-.905 5.425a16.6 16.6 0 0 1-2.676 4.927q-.233.27-.509.437a1.2 1.2 0 0 1-.626.167M33.861 36v-.951q0-3.32 3.341-4.371t5.728-1.052 5.728 1.052T52 35.049V36zm9.07-10.198q-1.763 0-2.999-1.302-1.234-1.302-1.234-3.16 0-1.857 1.234-3.16 1.236-1.302 2.998-1.302t2.998 1.302 1.235 3.16-1.235 3.16-2.998 1.302Z"/></g></svg>