<svg xmlns="http://www.w3.org/2000/svg" width="52" height="52" fill="none"><mask id="a" width="52" height="52" x="0" y="0" maskUnits="userSpaceOnUse" style="mask-type:alpha"><path fill="#D9D9D9" d="M0 0h52v52H0z"/></mask><g mask="url(#a)"><path fill="#081646" d="m33.583 37.835 11.142-11.141q.45-.45 1.131-.46a1.53 1.53 0 0 1 1.152.46q.471.47.471 1.142 0 .67-.47 1.141L34.953 41.031q-.588.588-1.37.588-.784 0-1.372-.588l-5.946-5.946q-.45-.45-.46-1.13a1.53 1.53 0 0 1 .46-1.153q.472-.47 1.142-.47t1.142.47zM11.5 44.42q-1.616 0-2.766-1.15-1.15-1.152-1.15-2.767v-29q0-1.616 1.15-2.766t2.766-1.15h9.546q.45-1.584 1.84-2.625A5.07 5.07 0 0 1 26 3.919q1.793 0 3.164 1.042 1.373 1.041 1.824 2.624H40.5q1.616 0 2.766 1.151t1.15 2.766v8.542q0 .69-.467 1.158a1.57 1.57 0 0 1-1.158.467 1.57 1.57 0 0 1-1.157-.467 1.57 1.57 0 0 1-.467-1.158v-8.542q0-.25-.209-.458a.64.64 0 0 0-.458-.209h-4.75v3.709q0 .832-.56 1.395-.562.563-1.39.563H18.2q-.83 0-1.39-.563t-.56-1.395v-3.709H11.5q-.25 0-.458.209a.64.64 0 0 0-.209.458v29q0 .25.209.458a.64.64 0 0 0 .458.209h10.708q.69 0 1.158.467.468.468.467 1.158 0 .692-.467 1.158a1.57 1.57 0 0 1-1.158.467H11.5Zm14.504-33.333q.833 0 1.394-.565.56-.564.56-1.398 0-.833-.564-1.394t-1.398-.56-1.394.564-.56 1.398q0 .833.564 1.394t1.398.56Z"/></g></svg>